name C:\Users\r0593348\3dpredictsim\Results\Batchsim_tmt_linear\Pog_s1_tmt_bCst_d00_k2000_ig24.mot
datacolumns 128
datarows 4
range 1.07504155 1.10729280
endheader
time	pelvis_tilt	pelvis_list	pelvis_rotation	pelvis_tx	pelvis_ty	pelvis_tz	hip_flexion_l	hip_adduction_l	hip_rotation_l	hip_flexion_r	hip_adduction_r	hip_rotation_r	knee_angle_l	knee_angle_r	ankle_angle_l	ankle_angle_r	subtalar_angle_l	subtalar_angle_r	tmt_angle_l	tmt_angle_r	mtp_angle_l	mtp_angle_r	lumbar_extension	lumbar_bending	lumbar_rotation	arm_flex_l	arm_add_l	arm_rot_l	arm_flex_r	arm_add_r	arm_rot_r	elbow_flex_l	elbow_flex_r	pro_sup_l	pro_sup_r	glut_med1_l/activation	glut_med2_l/activation	glut_med3_l/activation	glut_min1_l/activation	glut_min2_l/activation	glut_min3_l/activation	semimem_l/activation	semiten_l/activation	bifemlh_l/activation	bifemsh_l/activation	sar_l/activation	add_long_l/activation	add_brev_l/activation	add_mag1_l/activation	add_mag2_l/activation	add_mag3_l/activation	tfl_l/activation	pect_l/activation	grac_l/activation	glut_max1_l/activation	glut_max2_l/activation	glut_max3_l/activation	iliacus_l/activation	psoas_l/activation	quad_fem_l/activation	gem_l/activation	peri_l/activation	rect_fem_l/activation	vas_med_l/activation	vas_int_l/activation	vas_lat_l/activation	med_gas_l/activation	lat_gas_l/activation	soleus_l/activation	tib_post_l/activation	flex_dig_l/activation	flex_hal_l/activation	tib_ant_l/activation	per_brev_l/activation	per_long_l/activation	per_tert_l/activation	ext_dig_l/activation	ext_hal_l/activation	ercspn_l/activation	intobl_l/activation	extobl_l/activation	glut_med1_r/activation	glut_med2_r/activation	glut_med3_r/activation	glut_min1_r/activation	glut_min2_r/activation	glut_min3_r/activation	semimem_r/activation	semiten_r/activation	bifemlh_r/activation	bifemsh_r/activation	sar_r/activation	add_long_r/activation	add_brev_r/activation	add_mag1_r/activation	add_mag2_r/activation	add_mag3_r/activation	tfl_r/activation	pect_r/activation	grac_r/activation	glut_max1_r/activation	glut_max2_r/activation	glut_max3_r/activation	iliacus_r/activation	psoas_r/activation	quad_fem_r/activation	gem_r/activation	peri_r/activation	rect_fem_r/activation	vas_med_r/activation	vas_int_r/activation	vas_lat_r/activation	med_gas_r/activation	lat_gas_r/activation	soleus_r/activation	tib_post_r/activation	flex_dig_r/activation	flex_hal_r/activation	tib_ant_r/activation	per_brev_r/activation	per_long_r/activation	per_tert_r/activation	ext_dig_r/activation	ext_hal_r/activation	ercspn_r/activation	intobl_r/activation	extobl_r/activation	
          1.07504155	         -2.92959296	         -2.24066503	          5.29935436	          1.34380194	          0.85855487	         -0.00223209	        -18.10472313	         -1.69723144	          7.13709536	         31.61398317	          3.12322773	         -1.73000018	         -5.98253918	        -14.52943242	          1.59422088	          7.32653970	          9.55294496	         -3.24887048	          0.51506381	          0.01776704	         21.03599000	         -0.12809226	         -2.02012905	          0.57479341	         -1.97120664	          8.88492477	        -13.45303556	         18.76251539	         -8.02933054	        -13.50748233	         10.37206436	         33.19138334	         12.01779105	         86.51662706	         86.51662706	          0.32905723	          0.11398777	          0.08197894	          0.34092407	          0.22451753	          0.11398849	          0.05000092	          0.05000016	          0.05000011	          0.07781347	          0.11398894	          0.05000015	          0.05000012	          0.05000015	          0.05000041	          0.05000027	          0.33063473	          0.05000060	          0.05000043	          0.05000679	          0.05000309	          0.05000101	          0.38586012	          0.63731403	          0.05000024	          0.05000071	          0.05859316	          0.20236475	          0.05000130	          0.05000065	          0.05000067	          0.33420805	          0.44844203	          0.31441948	          0.27279680	          0.28743638	          0.38832756	          0.05000003	          0.05993936	          0.15978077	          0.05000017	          0.05000005	          0.05000017	          0.05000001	          0.05000001	          0.05000002	          0.10188967	          0.05000013	          0.05895837	          0.05000010	          0.05000013	          0.05000044	          0.05895871	          0.05895880	          0.20458849	          0.05000042	          0.05000162	          0.10559102	          0.15387871	          0.21213477	          0.15633188	          0.10540265	          0.05895870	          0.05003178	          0.05896183	          0.05896055	          0.06952225	          0.10740602	          0.05000011	          0.05000016	          0.24445070	          0.05029288	          0.05000039	          0.05000037	          0.09329351	          0.09644577	          0.08218589	          0.05895861	          0.05296154	          0.05895866	          0.05000005	          0.05000075	          0.05000254	          0.49154634	          0.37909491	          0.21955686	          0.27795246	          0.54260192	          0.28148975	          0.07759509	          0.11047757	          0.11421830	
          1.08579197	         -2.92477494	         -2.33202075	          5.59716261	          1.35979635	          0.85747908	         -0.00203663	        -17.98391694	         -1.99389332	          6.90673172	         31.03222284	          3.47191319	         -1.51952332	         -7.90107578	        -14.39755753	          0.86991956	          6.76410684	         10.50388800	         -3.72632790	          0.49396617	          0.02151268	         22.10678495	         -0.10863327	         -1.83313460	          0.79231500	         -2.04540224	          8.75542683	        -13.46178593	         18.90402555	         -9.07051330	        -13.50044141	         10.28789154	         34.35559130	         11.88403555	         86.51662706	         86.51662706	          0.27905758	          0.09666753	          0.06952240	          0.28912129	          0.19040249	          0.09666815	          0.05000303	          0.05000049	          0.05000071	          0.06598986	          0.09666865	          0.11823026	          0.05017628	          0.05936897	          0.05000679	          0.06951920	          0.28039541	          0.06531639	          0.05000289	          0.05000209	          0.05000151	          0.05000139	          0.32722933	          0.56893567	          0.05000049	          0.05005046	          0.05895877	          0.17161583	          0.05000233	          0.18011060	          0.16175613	          0.28342566	          0.38030200	          0.26947642	          0.24902584	          0.24376243	          0.32932317	          0.05000002	          0.05083199	          0.16464101	          0.05000012	          0.05000003	          0.05000012	          0.05000002	          0.06952250	          0.05000002	          0.08640780	          0.05895835	          0.05000011	          0.05895904	          0.05895868	          0.05000066	          0.05000008	          0.05000032	          0.17702956	          0.05000042	          0.05000117	          0.08954742	          0.13049731	          0.22565569	          0.17713144	          0.10080319	          0.05000025	          0.05000198	          0.05000303	          0.05000420	          0.05895861	          0.11259840	          0.05136788	          0.05153419	          0.50503117	          0.13441544	          0.08623208	          0.06952262	          0.18356239	          0.18799093	          0.16225107	          0.05000000	          0.05000001	          0.05000000	          0.05000014	          0.05895893	          0.05000327	          0.54795302	          0.34113743	          0.22837945	          0.45286160	          0.58100706	          0.25077454	          0.06580465	          0.09369068	          0.09686302	
          1.09654238	         -2.91576957	         -2.41859639	          5.87152365	          1.37609753	          0.85642175	         -0.00184957	        -17.78838926	         -2.28202775	          6.66633079	         30.32585129	          3.77010351	         -1.24662312	         -9.95392141	        -14.80455209	         -0.01265658	          6.13915025	         11.41610916	         -4.22498030	          0.46443354	         -0.01564703	         23.04032474	         -0.15090298	         -1.62295332	          1.01152443	         -2.11003366	          8.53382521	        -13.47095271	         18.97166369	        -10.13770321	        -13.49584691	         10.21821786	         35.49332572	         11.81929131	         86.51662706	         86.51662706	          0.34420179	          0.08197907	          0.05895862	          0.24518993	          0.16147118	          0.08197961	          0.05000167	          0.05000054	          0.05000053	          0.05596284	          0.08198019	          0.14346453	          0.10140824	          0.05895972	          0.05895897	          0.05895864	          0.23779009	          0.08628330	          0.05002034	          0.05000694	          0.05000764	          0.05895501	          0.27750747	          0.54303182	          0.05868845	          0.05000103	          0.05000016	          0.14553911	          0.09599395	          0.15274354	          0.13717812	          0.24035958	          0.32251572	          0.22852990	          0.21118683	          0.20672332	          0.27928319	          0.05000001	          0.05000032	          0.18254769	          0.05000007	          0.05000002	          0.05000010	          0.05516012	          0.05895868	          0.05000103	          0.26749717	          0.05000006	          0.30263218	          0.05000037	          0.05000015	          0.21643685	          0.07434386	          0.05000021	          0.15972581	          0.05000007	          0.05000035	          0.08198082	          0.23020224	          0.19136831	          0.15021944	          0.13153452	          0.05000045	          0.05896276	          0.11768890	          0.05000010	          0.05000014	          0.11702713	          0.05885840	          0.05000108	          0.42829251	          0.11399131	          0.15894419	          0.05895878	          0.15567045	          0.15942610	          0.13759735	          0.06359268	          0.06351295	          0.05895947	          0.05895869	          0.05000034	          0.05000050	          0.46469243	          0.34697710	          0.19367764	          0.38405013	          0.57754954	          0.21266977	          0.05580576	          0.09712828	          0.08214484	
          1.10729280	         -2.90425284	         -2.50414571	          6.11498200	          1.39254835	          0.85538783	         -0.00165172	        -17.49553815	         -2.56114215	          6.42185567	         29.49488792	          4.03370079	         -0.96406599	        -12.15989011	        -15.25311383	         -1.04624646	          5.69318627	         12.27117864	         -4.71717031	          0.43155293	         -0.01136984	         23.78576168	         -0.15877255	         -1.40532736	          1.23526599	         -2.16505619	          8.24211620	        -13.48311398	         18.97558342	        -11.18969765	        -13.49446565	         10.18284698	         36.59492160	         11.79605772	         86.51662706	         86.51662706	          0.30636351	          0.06952250	          0.05000009	          0.34817594	          0.13693595	          0.06952297	          0.05000241	          0.05000014	          0.05000012	          0.05000017	          0.06952397	          0.13329702	          0.08599954	          0.05000108	          0.05000088	          0.05000041	          0.25819363	          0.07317449	          0.05000043	          0.05000118	          0.05000072	          0.05000042	          0.23534078	          0.50616132	          0.05000008	          0.05000055	          0.05000031	          0.13441126	          0.08140816	          0.12953519	          0.12904742	          0.20383732	          0.27350997	          0.19380514	          0.17909736	          0.17531215	          0.23684663	          0.05000003	          0.09339148	          0.18427100	          0.05000014	          0.05000024	          0.05000018	          0.07351770	          0.05000001	          0.05000002	          0.31787972	          0.28764010	          0.36806627	          0.18933377	          0.20705466	          0.18355011	          0.06304752	          0.09687809	          0.13545576	          0.08197966	          0.05893805	          0.06952400	          0.19522339	          0.16229030	          0.12739403	          0.15248744	          0.05000028	          0.05000373	          0.09980675	          0.22197689	          0.16989585	          0.13277023	          0.05000006	          0.05000007	          0.36321420	          0.09667070	          0.13479309	          0.05000011	          0.13201665	          0.13520174	          0.11668973	          0.05392988	          0.05386228	          0.05000068	          0.05000002	          0.05895872	          0.05213371	          0.59203336	          0.43149414	          0.22191832	          0.64119990	          0.64384229	          0.33739544	          0.07827728	          0.08951447	          0.06966306	
